<?xml version="1.0" encoding="UTF-8" standalone="no"?>
<!-- Created with Inkscape (http://www.inkscape.org/) -->

<svg
   width="158.66109mm"
   height="154.32506mm"
   viewBox="0 0 158.66109 154.32506"
   version="1.1"
   id="svg1"
   xml:space="preserve"
   xmlns="http://www.w3.org/2000/svg"
   xmlns:svg="http://www.w3.org/2000/svg"><defs
     id="defs1" /><g
     id="layer1"
     transform="translate(-25.174867,-75.833061)"><g
       id="g2"
       transform="translate(-67.741277,-6.5719149)"><path
         style="fill:#e5f9e0;fill-opacity:1"
         d="m 92.916145,205.4496 0.05728,0.66851 0.05728,0.66851 0.255401,1.5877 0.2554,1.58771 0.568569,2.17265 0.56857,2.17266 0.58558,1.44886 0.585581,1.44887 0.529556,1.05804 0.529556,1.05804 0.830038,1.38234 0.830037,1.38235 1.019078,1.37443 1.019079,1.37443 1.68338,1.73227 1.68338,1.73228 1.25345,1.01295 1.25345,1.01296 1.62374,1.06645 1.62374,1.06646 2.05306,0.97657 2.05305,0.97658 2.08909,0.67386 2.08909,0.67385 2.25622,0.424 2.25621,0.42399 0.75207,0.0603 0.75207,0.0603 z m 127.859835,31.07706 0.6047,0.14557 0.58494,-0.0598 1.67127,-0.26835 1.63178,-0.37104 2.08204,-0.45572 2.04255,-0.5584 1.43722,-0.59494 1.43721,-0.59493 1.28336,-0.647 1.28336,-0.64699 1.50414,-0.99247 1.50414,-0.99246 1.29011,-1.0284 1.2901,-1.0284 1.30968,-1.2973 1.30968,-1.29731 1.06294,-1.33701 1.06293,-1.33702 0.94702,-1.43796 0.94703,-1.43796 0.84507,-1.65389 0.84507,-1.65389 0.61849,-1.66211 0.61849,-1.6621 0.476,-1.84756 0.476,-1.84757 0.25986,-1.67127 0.25987,-1.67127 0.0581,-0.58494 0.0581,-0.58495 z m -48.86492,-13.47102 -1.58771,-0.0242 -2.08908,-0.12871 -2.08909,-0.1287 -2.08909,-0.27194 -2.08909,-0.27195 -2.08909,-0.41586 -2.08909,-0.41586 -1.83839,-0.48789 -1.8384,-0.4879 -2.49133,-0.85035 -2.49133,-0.85036 -2.76095,-1.2525 -2.76096,-1.25251 -2.26843,-1.26511 -2.26844,-1.26511 -2.10223,-1.38886 -2.10223,-1.38886 -1.65813,-1.29317 -1.65813,-1.29317 -1.75483,-1.5425 -1.75484,-1.54251 -1.67555,-1.73262 -1.67555,-1.73262 -1.01647,-1.18833 -1.01647,-1.18832 -1.26612,-1.67186 -1.26612,-1.67186 -1.07772,-1.65225 -1.07771,-1.65225 -1.0564,-1.83839 -1.0564,-1.8384 -1.11445,-2.42334 -1.11445,-2.42335 -0.78483,-2.08909 -0.78484,-2.08908 -0.74007,-2.57458 -0.74007,-2.57458 -0.49516,-2.43923 -0.49516,-2.43924 -0.25753,-1.99735 -0.25753,-1.99735 -0.18155,-3.12823 -0.18155,-3.12824 0.18816,-3.06364 0.18815,-3.06364 0.24874,-1.8384 0.24873,-1.8384 0.33649,-1.75483 0.33649,-1.75484 0.56893,-2.17265 0.56893,-2.17265 0.82913,-2.42334 0.82913,-2.42334 0.78066,-1.82579 0.78066,-1.82579 0.81148,-1.61706 0.81148,-1.61707 0.95337,-1.65452 0.95336,-1.65453 1.47023,-2.17265 1.47023,-2.17265 1.40012,-1.75483 1.40011,-1.75484 1.71294,-1.8384 1.71293,-1.83839 1.70265,-1.55408 1.70264,-1.55408 1.50414,-1.22668 1.50414,-1.22668 1.84027,-1.31655 1.84026,-1.31655 2.25435,-1.35391 2.25435,-1.35392 2.06857,-1.0369 2.06858,-1.0369 1.80627,-0.7398 1.80628,-0.7398 1.15716,-0.41741 1.15715,-0.41741 1.90377,-0.568987 1.90377,-0.568988 1.8384,-0.427501 1.83839,-0.427502 2.00553,-0.332673 2.00552,-0.332673 1.58771,-0.183825 1.58771,-0.183825 3.84392,-0.09894 3.84392,-0.09894 2.50691,0.200348 2.50691,0.200348 2.20384,0.321618 2.20384,0.321618 1.97434,0.426188 1.97433,0.426189 2.25622,0.646782 2.25621,0.646783 2.13748,0.77495 2.13747,0.77495 2.18587,0.98903 2.18587,0.98904 2.02749,1.11685 2.02748,1.11684 2.33978,1.53621 2.33978,1.5362 1.72679,1.34974 1.72679,1.34974 1.99622,1.79501 1.99622,1.79501 1.62986,1.77181 1.62986,1.77181 0.84262,1.00276 0.84262,1.00276 1.02684,1.36117 1.02685,1.36117 1.3996,2.1485 1.3996,2.1485 0.9694,1.73783 0.9694,1.73782 0.79887,1.69359 0.79886,1.69359 0.82923,2.08378 0.82922,2.08378 0.59991,1.86192 0.59991,1.86192 0.49806,1.982 0.49806,1.982 0.34245,1.73095 0.34244,1.73095 0.2436,1.86228 0.24359,1.86229 0.18938,3.00828 0.18938,3.00829 -0.10769,2.25622 -0.10768,2.25621 -0.16157,1.75484 -0.16157,1.75483 -0.42761,2.59047 -0.42761,2.59047 -0.64312,2.5069 -0.64313,2.50691 -0.65589,1.92196 -0.65589,1.92196 -0.78779,1.92196 -0.78779,1.92197 -1.2149,2.42334 -1.2149,2.42334 -1.22139,1.99154 -1.22138,1.99154 -0.9981,1.43457 -0.99811,1.43456 -1.60486,1.99159 -1.60487,1.99159 -1.84378,1.92191 -1.84379,1.9219 -1.8384,1.65887 -1.8384,1.65887 -1.93376,1.47467 -1.93377,1.47466 -1.91016,1.23801 -1.91015,1.23801 -1.53435,0.8711 -1.53434,0.8711 -2.05889,0.98301 -2.05889,0.98301 -2.08909,0.8266 -2.08909,0.8266 -1.83839,0.59714 -1.8384,0.59714 -1.58771,0.41962 -1.58771,0.41963 -2.17265,0.41914 -2.17265,0.41914 -1.8384,0.25806 -1.83839,0.25807 -2.67404,0.16669 -2.67403,0.16669 z m 1.25345,-5.73641 5.01382,-0.0624 1.83839,-0.26297 1.8384,-0.26297 2.16208,-0.43455 2.16208,-0.43455 2.18323,-0.64694 2.18322,-0.64693 1.92196,-0.73594 1.92196,-0.73595 1.75735,-0.77407 1.75735,-0.77407 2.17014,-1.18019 2.17014,-1.18018 2.16097,-1.43661 2.16097,-1.4366 2.10077,-1.67511 2.10077,-1.6751 2.77119,-2.76851 2.7712,-2.7685 1.2591,-1.58771 1.25909,-1.5877 1.08986,-1.58771 1.08986,-1.58771 0.9491,-1.56977 0.94911,-1.56978 1.22034,-2.44127 1.22034,-2.44128 0.94052,-2.44867 0.94053,-2.44868 0.5944,-2.06375 0.59441,-2.06376 0.48512,-2.42334 0.48511,-2.42334 0.27629,-2.33978 0.27628,-2.33978 9.8e-4,-3.94445 9.8e-4,-3.94445 -0.11713,-0.69333 -0.11714,-0.69332 -0.19422,8.5e-4 -0.19422,8.6e-4 -1.16518,2.54783 -1.16518,2.54783 -0.67322,2.0162 -0.67321,2.01621 -0.26183,0.39321 -0.26183,0.39321 h -0.52987 -0.52987 l -0.35447,-0.32033 -0.35448,-0.32032 -0.37647,-0.75207 -0.37647,-0.75208 -0.43061,-1.33701 -0.43061,-1.33702 -0.26287,-1.06462 -0.26286,-1.06462 -0.28433,-0.59918 -0.28434,-0.59919 -1.09098,-1.1565 -1.09098,-1.15649 -0.97532,-0.66233 -0.97532,-0.66233 -0.90816,-0.40163 -0.90817,-0.40164 -1.79511,-0.34785 -1.79511,-0.34786 -0.50138,-0.18412 -0.50138,-0.18413 -0.87972,-0.57356 -0.87973,-0.57357 -1.26841,-1.15211 -1.26842,-1.15211 h -0.30505 -0.30505 l -0.27224,0.27224 -0.27223,0.27224 0.10128,0.27092 0.10129,0.27093 0.53505,0.89916 0.53505,0.89916 0.73433,0.8234 0.73432,0.8234 1.64123,1.16365 1.64123,1.16366 0.40314,0.53989 0.40314,0.53989 0.20818,0.64918 0.20819,0.64918 -0.10149,0.86345 -0.10148,0.86345 -0.33744,0.98078 -0.33744,0.98079 -0.51241,0.79852 -0.51241,0.79852 -0.64727,0.58478 -0.64728,0.58477 -0.69196,0.18633 -0.69197,0.18633 -0.52918,-0.11307 -0.52917,-0.11307 -0.46586,-0.27112 -0.46585,-0.27112 -0.70404,-1.08543 -0.70403,-1.08544 -1.8384,-1.9365 -1.8384,-1.93651 -1.16772,-2.21903 -1.16772,-2.21904 -0.56211,-0.65669 -0.5621,-0.6567 -0.49296,-0.25491 -0.49296,-0.25492 -0.32608,0.10349 -0.32608,0.10349 -0.17655,0.32989 -0.17655,0.32988 2.45735,4.4637 2.45735,4.4637 1.04609,1.59362 1.0461,1.59362 0.77799,0.71712 0.77799,0.71713 0.53489,0.22349 0.5349,0.2235 1.30401,0.18137 1.304,0.18137 0.31509,0.16862 0.31508,0.16863 0.25927,0.37015 0.25926,0.37015 v 0.73254 0.73254 l -0.26193,1.01083 -0.26194,1.01082 -0.74118,1.47579 -0.74118,1.47578 -2.54834,3.80478 -2.54833,3.80478 -0.61245,1.16989 -0.61246,1.16989 -0.8367,2.08909 -0.83671,2.08909 -0.53509,1.16989 -0.53509,1.16989 -1.16276,2.08909 -1.16276,2.08908 -1.41617,2.12118 -1.41618,2.12117 -0.96411,0.8926 -0.96411,0.8926 -1.1732,0.61649 -1.1732,0.6165 -0.98068,0.25544 -0.98069,0.25543 -0.67517,-9.3e-4 -0.67518,-9.3e-4 -0.6313,-0.17531 -0.63129,-0.17532 -0.58677,-0.51518 -0.58676,-0.51519 -0.40082,-0.68737 -0.40082,-0.68736 -1.6307,-4.17818 -1.6307,-4.17818 -0.009,-1.25345 -0.009,-1.25345 0.72157,-1.9038 0.72156,-1.9038 0.0932,-1.11144 0.0932,-1.11143 -0.19084,-0.91226 -0.19085,-0.91225 -1.11871,-2.24142 -1.11872,-2.24142 -0.0969,-1.6025 -0.0969,-1.6025 -0.3847,-0.79406 -0.38469,-0.79405 -0.61172,-0.50613 -0.61172,-0.50613 -1.08633,-0.34412 -1.08632,-0.34412 -4.51243,-0.14359 -4.51244,-0.1436 -0.99554,-0.27364 -0.99555,-0.27365 -0.59216,-0.3034 -0.59216,-0.30339 -0.66851,-0.53143 -0.66851,-0.53144 -1.23021,-1.36536 -1.23022,-1.36537 -0.54986,-0.84354 -0.54987,-0.84354 -0.26722,-0.89985 -0.26723,-0.89984 v -0.81235 -0.81235 l 0.26267,-1.28819 0.26267,-1.28819 0.57532,-1.42058 0.57532,-1.42058 0.79098,-1.30849 0.79099,-1.3085 1.02863,-1.37057 1.02863,-1.37057 1.15955,-1.18748 1.15954,-1.18748 1.26692,-0.60937 1.26692,-0.60936 2.57617,-0.6477 2.57616,-0.6477 2.13745,-0.29724 2.13744,-0.29724 1.30666,0.19044 1.30666,0.19045 0.80347,0.40758 0.80346,0.40757 1.39804,1.28799 1.39805,1.28798 0.85817,0.39958 0.85817,0.39958 0.70594,0.002 0.70594,0.002 1.26215,-0.50138 1.26216,-0.50139 1.20732,0.007 1.20732,0.007 0.66851,0.25569 0.6685,0.25569 0.98031,0.35237 0.9803,0.35236 0.92663,-0.19436 0.92663,-0.19436 0.53148,-0.36418 0.53148,-0.36418 0.36097,-0.52679 0.36096,-0.5268 v -0.54042 -0.54041 l -0.38186,-0.38186 -0.38186,-0.38186 -1.41476,-0.52512 -1.41475,-0.52512 -0.58495,-0.31729 -0.58494,-0.31729 -0.37604,-0.54768 -0.37603,-0.54769 v -0.90278 -0.90279 l 0.25352,-0.49025 0.25352,-0.49025 0.45677,-0.23407 0.45677,-0.23406 1.23452,-0.12228 1.23452,-0.12227 1.02169,-0.27484 1.0217,-0.27484 0.0511,-0.43993 0.0511,-0.43993 -0.50696,-0.36099 -0.50697,-0.36099 -2.29857,-1.00663 -2.29857,-1.00663 -0.54802,0.26134 -0.54803,0.26133 -0.76222,0.70259 -0.76222,0.70259 -0.42307,0.72191 -0.42307,0.72192 -0.14585,1.81441 -0.14585,1.81441 -0.1611,0.42375 -0.16111,0.42374 -0.37601,0.3503 -0.376,0.35031 h -0.6103 -0.6103 l -0.98768,-0.49836 -0.98767,-0.49836 -1.92197,-1.44063 -1.92196,-1.44063 -0.6685,-0.31356 -0.66851,-0.31355 -0.76769,-0.004 -0.76769,-0.004 -0.98715,0.33751 -0.98714,0.33752 -2.59331,1.49144 -2.59331,1.49144 -1.11519,0.52186 -1.11518,0.52185 -0.8875,0.0885 -0.8875,0.0885 -0.56796,-0.392 -0.56797,-0.392 -0.30945,-0.58234 -0.30946,-0.58234 v -0.76976 -0.76977 l 0.49405,-0.98767 0.49404,-0.98768 0.80539,-1.00276 0.80538,-1.00276 1.49974,-1.16989 1.49973,-1.16989 0.83434,-0.9192 0.83435,-0.9192 0.86538,-0.86774 0.86539,-0.86774 0.82809,-0.41963 0.8281,-0.41963 1.90126,-0.49921 1.90126,-0.49921 1.50414,-0.26796 1.50414,-0.26797 0.58495,-0.18047 0.58494,-0.18048 0.39758,-0.35545 0.39757,-0.35545 0.23863,-0.56048 0.23863,-0.56047 -0.10627,-0.48386 -0.10628,-0.48386 -0.3582,-0.2509 -0.35821,-0.2509 h -0.63962 -0.63962 l -0.53487,0.2715 -0.53486,0.27151 -0.69676,0.56423 -0.69675,0.56423 -0.86578,0.43486 -0.86578,0.43485 -0.80631,0.0246 -0.80631,0.0246 -0.47231,-0.34928 -0.47232,-0.34929 -0.21993,-0.44854 -0.21994,-0.44854 0.18144,-0.87345 0.18145,-0.87344 0.92576,-1.91928 0.92576,-1.91928 1.03469,-1.73755 1.03469,-1.73756 0.64787,-0.64816 0.64786,-0.64817 0.9283,-0.26986 0.92829,-0.26986 0.93075,0.0985 0.93074,0.0985 1.8384,0.40751 1.8384,0.40751 0.94681,0.1098 0.94682,0.10979 0.67371,-0.18141 0.67371,-0.18141 0.34322,-0.43633 0.34322,-0.43632 v -0.42238 -0.42238 l -0.40726,-0.69492 -0.40725,-0.69492 -0.63729,-0.44041 -0.63729,-0.44041 -1.096,-0.49595 -1.09599,-0.49594 -1.06747,-0.27661 -1.06746,-0.27661 -1.33098,-0.42045 -1.33098,-0.42046 -1.6865,-1.6348 -1.6865,-1.63481 -0.70503,-0.35577 -0.70503,-0.35578 -1.04981,-0.2475 -1.0498,-0.24751 -1.3006,-0.002 -1.30061,-0.002 -0.53779,0.22969 -0.5378,0.2297 -1.42058,1.60602 -1.42058,1.60603 -3.92748,3.73991 -3.92749,3.73991 -1.75483,1.63197 -1.75484,1.63197 -0.7354,0.33205 -0.73541,0.33204 -0.65138,-0.19516 -0.65139,-0.19516 -0.32564,-0.53406 -0.32563,-0.53405 10e-4,-1.16989 0.001,-1.16989 0.23261,-0.87374 0.23261,-0.87373 0.67658,-1.38248 0.67658,-1.38248 1.5091,-2.58519 1.50909,-2.58519 -0.15753,-0.15754 -0.15754,-0.15753 -1.80313,0.46514 -1.80313,0.46515 -2.00553,0.65196 -2.00552,0.65196 -0.99251,0.5503 -0.9925,0.55029 -0.0548,0.16451 -0.0548,0.16451 0.66385,0.29289 0.66386,0.29289 0.42087,0.50018 0.42087,0.50017 0.18835,0.69949 0.18836,0.69949 -0.083,0.61865 -0.083,0.61864 -0.42529,0.92897 -0.4253,0.92896 -0.58819,0.87894 -0.5882,0.87893 -1.5944,1.99955 -1.59439,1.99955 v 0.37531 0.37532 l 0.43869,1.70294 0.4387,1.70294 -0.0822,1.02449 -0.0822,1.02448 -0.34435,0.675 -0.34436,0.67499 -0.69013,0.62349 -0.69013,0.62349 -0.8679,0.55401 -0.86789,0.554 -2.17266,1.21416 -2.17265,1.21417 -1.14662,0.73918 -1.14662,0.73917 -2.44661,2.37323 -2.44661,2.37322 -1.08633,0.93094 -1.08632,0.93093 -1.00277,0.75803 -1.00276,0.75803 -0.9192,0.51688 -0.9192,0.51688 -1.75483,0.60809 -1.75483,0.60809 -0.50139,0.30891 -0.50138,0.3089 -0.61856,0.63725 -0.61857,0.63725 -0.25885,0.62136 -0.25885,0.62136 0.004,1.04991 0.004,1.04991 0.30532,0.66851 0.30532,0.66851 0.69898,1.07851 0.69897,1.07851 0.24488,0.84345 0.24488,0.84345 0.1502,1.8723 0.15021,1.8723 0.31,0.63461 0.31,0.63461 0.72551,0.0521 0.7255,0.0521 1.46784,-0.3446 1.46783,-0.34461 1.23277,0.004 1.23276,0.004 0.73987,0.33565 0.73986,0.33566 1.11551,0.90129 1.11551,0.90129 2.48993,2.64054 2.48993,2.64053 1.8384,1.89897 1.8384,1.89897 1.04474,0.78614 1.04474,0.78615 2.87911,1.66474 2.8791,1.66475 1.26753,1.25345 1.26752,1.25345 0.19848,0.6879 0.19847,0.6879 v 1.25715 1.25715 l -0.41148,1.41993 -0.41148,1.41994 -0.83405,1.94379 -0.83405,1.94379 -2.66037,5.24789 -2.66036,5.2479 -0.21104,1.11847 -0.21104,1.11846 0.10394,1.11833 0.10393,1.11832 0.34458,1.04963 0.34457,1.04962 1.18931,1.95043 1.1893,1.95042 0.70355,0.9192 0.70355,0.9192 0.91197,0.86043 0.91197,0.86043 0.83063,0.42091 0.83062,0.42091 1.68062,0.58498 1.68061,0.58498 1.90381,0.5067 1.90381,0.50669 2.25622,0.43168 2.25622,0.43167 2.08908,0.23685 2.08909,0.23685 z M 201.2621,194.3352 h -0.58131 l -0.26262,-0.26263 -0.26263,-0.26263 v -0.40249 -0.4025 l 0.28318,-0.71367 0.28317,-0.71368 0.57446,-0.98486 0.57446,-0.98486 1.46571,-1.93986 1.46572,-1.93986 0.5837,-0.55882 0.5837,-0.55882 0.31015,0.0589 0.31014,0.0589 0.0495,0.42303 0.0495,0.42303 -0.60509,1.99888 -0.60509,1.99889 -0.6315,1.33702 -0.63149,1.33701 -0.71222,0.79946 -0.71222,0.79946 -0.47395,0.24508 -0.47394,0.24509 z m -34.59372,-65.05562 -1.07985,0.0867 -0.43197,-0.43197 -0.43196,-0.43196 v -0.31208 -0.31208 l 0.25596,-0.74006 0.25596,-0.74006 0.5815,-0.79413 0.58149,-0.79412 0.69176,-0.50111 0.69177,-0.50111 h 0.69786 0.69786 l 0.40517,0.43128 0.40517,0.43128 v 1.19821 1.1982 l -0.34959,0.66648 -0.34958,0.66648 -0.77085,0.3967 -0.77086,0.39669 z m -26.22811,78.59291 h 0.21803 V 207.7 207.5275 l -0.2574,-0.61603 -0.25739,-0.61603 -0.96885,-1.42591 -0.96884,-1.4259 -0.945,-1.6178 -0.945,-1.61779 -1.41013,-2.76949 -1.41014,-2.76948 -1.18136,-3.04988 -1.18137,-3.04987 -0.54137,-1.08633 -0.54136,-1.08633 -0.94707,-1.25734 -0.94708,-1.25735 -2.84492,-2.95637 -2.84492,-2.95636 -0.49084,-0.71654 -0.49083,-0.71653 -0.37395,-0.73661 -0.37395,-0.73662 -0.27565,-0.85109 -0.27565,-0.8511 0.0507,-3.8534 0.0507,-3.8534 -0.25301,-1.21346 -0.25301,-1.21346 -0.55708,-1.28397 -0.55708,-1.28396 -1.32607,-2.22339 -1.32608,-2.22339 -0.52759,-0.57599 -0.52759,-0.57599 h -0.16309 -0.16309 l -0.10539,0.87742 -0.10539,0.87741 3.4e-4,3.25898 3.4e-4,3.25898 0.24732,2.33072 0.24733,2.33072 0.33601,1.84745 0.33601,1.84746 0.42428,1.75484 0.42428,1.75483 0.51325,1.67127 0.51325,1.67127 0.87905,2.2589 0.87904,2.2589 1.08444,2.25353 1.08444,2.25353 1.36249,2.23619 1.36249,2.2362 1.66293,2.21488 1.66292,2.21489 1.57663,1.74605 1.57662,1.74605 1.89766,1.77843 1.89766,1.77842 1.58771,1.26723 1.58771,1.26723 1.32789,0.91019 1.3279,0.91018 z M 128.08405,125.4793 h 0.72154 l 0.63505,-0.32398 0.63506,-0.32398 2.65905,-2.06312 2.65905,-2.06311 2.42334,-1.82926 2.42334,-1.82926 1.2007,-1.1735 1.2007,-1.17349 0.11854,-0.48307 0.11855,-0.48307 -0.14936,-0.41906 -0.14935,-0.41905 -0.47186,-0.35133 -0.47185,-0.35133 h -0.72268 -0.72268 l -1.39593,0.9554 -1.39594,0.95539 -1.75483,1.46716 -1.75484,1.46717 -2.15609,2.08987 -2.15609,2.08988 -1.47892,1.6596 -1.47893,1.6596 v 0.2111 0.2111 l 0.37144,0.26017 0.37145,0.26017 z m 123.37946,-12.86879 -0.001,-0.79385 -0.001,-0.79386 -0.49423,-2.43814 -0.49423,-2.43815 -0.57093,-1.74003 -0.57094,-1.74003 -0.90928,-1.92196 -0.90928,-1.921962 -0.85397,-1.373838 -0.85398,-1.373839 -0.99352,-1.300194 -0.99352,-1.300195 -1.03456,-1.12425 -1.03456,-1.12425 -1.53466,-1.287723 -1.53465,-1.287723 -1.50415,-0.989453 -1.50414,-0.989454 -2.00552,-0.983343 -2.00553,-0.983344 -2.02224,-0.660982 -2.02225,-0.660982 -1.87815,-0.359327 -1.87814,-0.359327 -1.11342,-0.129932 z m -158.483964,-0.75207 -0.0634,0.66851 29.943114,-30.121978 -1.25411,0.133352 -1.25412,0.133353 -1.67061,0.340866 -1.6706,0.340866 -1.92196,0.602739 -1.92197,0.60274 -2.17265,1.055082 -2.17265,1.055082 -1.50414,0.992898 -1.50415,0.992897 -1.25345,1.011191 -0.89598,1.033532 -1.69829,1.376274 -1.34082,1.398617 -1.040212,1.368233 -1.040208,1.368233 -0.951837,1.556491 -0.951837,1.556491 -0.890931,1.963711 -0.890932,1.96372 -0.576979,2.00458 -0.57698,2.00458 -0.330448,1.96472 -0.330447,1.96471 z"
         id="path3" /><path
         style="fill:#2f9c95;fill-opacity:1"
         d="m 173.08095,236.71542 -49.0518,0.0146 -0.75207,-0.0615 -0.75207,-0.0615 -2.25621,-0.42399 -2.25622,-0.424 -2.08909,-0.67385 -2.08909,-0.67386 -2.05305,-0.97658 -2.05306,-0.97657 -1.62374,-1.06646 -1.62374,-1.06645 -1.25345,-1.01296 -1.25345,-1.01295 -1.68338,-1.73228 -1.68338,-1.73227 -1.019078,-1.37443 -1.019078,-1.37443 -0.830037,-1.38235 -0.830038,-1.38234 -0.529556,-1.05804 -0.529556,-1.05804 -0.585581,-1.44887 -0.58558,-1.44886 -0.567719,-2.17266 -0.567718,-2.17265 -0.299845,-1.58771 -0.299846,-1.5877 v -47.71478 -47.71478 l 0.380163,-2.04828 0.380162,-2.04828 0.57698,-2.00458 0.576979,-2.00458 0.890932,-1.96372 0.890931,-1.96371 0.951837,-1.556491 0.951837,-1.556491 1.027366,-1.368233 1.027365,-1.368233 1.93935,-1.921961 1.93934,-1.921962 1.54229,-1.086326 1.54228,-1.086326 1.54583,-0.876229 1.54583,-0.87623 1.50714,-0.658621 1.50715,-0.658622 1.97613,-0.596834 1.97614,-0.596833 1.95135,-0.375221 1.95135,-0.375222 h 50.6395 50.63951 l 2.3719,0.45804 2.37189,0.458039 2.05697,0.672384 2.05697,0.672384 2.00553,0.983344 2.00552,0.983343 1.50414,0.989454 1.50415,0.989453 1.53465,1.287723 1.53466,1.287723 1.03456,1.12425 1.03456,1.12425 0.99352,1.300195 0.99352,1.300194 0.85398,1.373839 0.85397,1.373838 0.90928,1.921962 0.90928,1.92196 0.57163,1.74214 0.57162,1.74214 0.53678,2.5196 0.53677,2.5196 v 47.71478 47.71478 l -0.37409,2.00553 -0.3741,2.00552 -0.41529,1.5413 -0.4153,1.54131 -0.608,1.63411 -0.60801,1.63411 -0.84507,1.65389 -0.84507,1.65389 -0.94703,1.43796 -0.94702,1.43796 -1.06293,1.33702 -1.06294,1.33701 -1.30968,1.29731 -1.30968,1.2973 -1.2901,1.0284 -1.29011,1.0284 -1.50414,0.99246 -1.50414,0.99247 -1.28336,0.64699 -1.28336,0.647 -1.40676,0.58232 -1.40675,0.58233 -1.82232,0.51267 -1.82232,0.51266 -1.83839,0.37071 -1.8384,0.37072 z m -1.16989,-13.65933 1.58771,0.0242 2.67403,-0.16669 2.67404,-0.16669 1.83839,-0.25807 1.8384,-0.25806 2.17265,-0.41914 2.17265,-0.41914 1.58771,-0.41963 1.58771,-0.41962 1.8384,-0.59714 1.83839,-0.59714 2.08909,-0.8266 2.08909,-0.8266 2.05889,-0.98301 2.05889,-0.98301 1.53434,-0.8711 1.53435,-0.8711 1.91015,-1.23801 1.91016,-1.23801 1.93377,-1.47466 1.93376,-1.47467 1.8384,-1.65887 1.8384,-1.65887 1.84379,-1.9219 1.84378,-1.92191 1.60487,-1.99159 1.60486,-1.99159 0.99811,-1.43456 0.9981,-1.43457 1.22138,-1.99154 1.22139,-1.99154 1.2149,-2.42334 1.2149,-2.42334 0.78779,-1.92197 0.78779,-1.92196 0.65589,-1.92196 0.65589,-1.92196 0.64313,-2.50691 0.64312,-2.5069 0.42761,-2.59047 0.42761,-2.59047 0.16157,-1.75483 0.16157,-1.75484 0.10768,-2.25621 0.10769,-2.25622 -0.18938,-3.00829 -0.18938,-3.00828 -0.24359,-1.86229 -0.2436,-1.86228 -0.34244,-1.73095 -0.34245,-1.73095 -0.49806,-1.982 -0.49806,-1.982 -0.59991,-1.86192 -0.59991,-1.86192 -0.82922,-2.08378 -0.82923,-2.08378 -0.79886,-1.69359 -0.79887,-1.69359 -0.9694,-1.73782 -0.9694,-1.73783 -1.3996,-2.1485 -1.3996,-2.1485 -1.02685,-1.36117 -1.02684,-1.36117 -0.84262,-1.00276 -0.84262,-1.00276 -1.62986,-1.77181 -1.62986,-1.77181 -1.99622,-1.79501 -1.99622,-1.79501 -1.72679,-1.34974 -1.72679,-1.34974 -2.33978,-1.5362 -2.33978,-1.53621 -2.02748,-1.11684 -2.02749,-1.11685 -2.18587,-0.98904 -2.18587,-0.98903 -2.13747,-0.77495 -2.13748,-0.77495 -2.25621,-0.646781 -2.25622,-0.646782 -1.97433,-0.426189 -1.97434,-0.426188 -2.20384,-0.321618 -2.20384,-0.321618 -2.50691,-0.200348 -2.50691,-0.200348 -3.84392,0.09894 -3.84392,0.09894 -1.58771,0.183825 -1.58771,0.183825 -2.00552,0.332673 -2.00553,0.332673 -1.83839,0.427502 -1.8384,0.427501 -1.90377,0.568988 -1.90377,0.568985 -1.15715,0.41741 -1.15716,0.41741 -1.80628,0.7398 -1.80627,0.7398 -2.06858,1.0369 -2.06857,1.0369 -2.25435,1.35392 -2.25435,1.35391 -1.84026,1.31655 -1.84027,1.31655 -1.50414,1.22668 -1.50414,1.22668 -1.70264,1.55408 -1.70265,1.55408 -1.71293,1.83839 -1.71294,1.8384 -1.40011,1.75484 -1.40012,1.75483 -1.47023,2.17265 -1.47023,2.17265 -0.95336,1.65453 -0.95337,1.65452 -0.81148,1.61707 -0.81148,1.61706 -0.78066,1.82579 -0.78066,1.82579 -0.82913,2.42334 -0.82913,2.42334 -0.56893,2.17265 -0.56893,2.17265 -0.33649,1.75484 -0.33649,1.75483 -0.24873,1.8384 -0.24874,1.8384 -0.18815,3.06364 -0.18816,3.06364 0.18155,3.12824 0.18155,3.12823 0.25753,1.99735 0.25753,1.99735 0.49516,2.43924 0.49516,2.43923 0.74007,2.57458 0.74007,2.57458 0.78484,2.08908 0.78483,2.08909 1.11445,2.42335 1.11445,2.42334 1.0564,1.8384 1.0564,1.83839 1.07771,1.65225 1.07772,1.65225 1.26612,1.67186 1.26612,1.67186 1.01647,1.18832 1.01647,1.18833 1.67555,1.73262 1.67555,1.73262 1.75484,1.54251 1.75483,1.5425 1.65813,1.29317 1.65813,1.29317 2.10223,1.38886 2.10223,1.38886 2.26844,1.26511 2.26843,1.26511 2.76096,1.25251 2.76095,1.2525 2.49133,0.85036 2.49133,0.85035 1.8384,0.4879 1.83839,0.48789 2.08909,0.41586 2.08909,0.41586 2.08909,0.27195 2.08909,0.27194 2.08909,0.1287 2.08908,0.12871 z m 1.25345,-5.73641 -5.01381,0.0624 -2.08909,-0.23685 -2.08908,-0.23685 -2.25622,-0.43167 -2.25622,-0.43168 -1.90381,-0.50669 -1.90381,-0.5067 -1.68061,-0.58498 -1.68062,-0.58498 -0.83062,-0.42091 -0.83063,-0.42091 -0.91197,-0.86043 -0.91197,-0.86043 -0.70355,-0.9192 -0.70355,-0.9192 -1.1893,-1.95042 -1.18931,-1.95043 -0.34457,-1.04962 -0.34458,-1.04963 -0.10393,-1.11832 -0.10394,-1.11833 0.21104,-1.11846 0.21104,-1.11847 2.66036,-5.2479 2.66037,-5.24789 0.83405,-1.94379 0.83405,-1.94379 0.41148,-1.41994 0.41148,-1.41993 v -1.25715 -1.25715 l -0.19847,-0.6879 -0.19848,-0.6879 -1.26752,-1.25345 -1.26753,-1.25345 -2.8791,-1.66475 -2.87911,-1.66474 -1.04474,-0.78615 -1.04474,-0.78614 -1.8384,-1.89897 -1.8384,-1.89897 -2.48993,-2.64053 -2.48993,-2.64054 -1.11551,-0.90129 -1.11551,-0.90129 -0.73986,-0.33566 -0.73987,-0.33565 -1.23276,-0.004 -1.23277,-0.004 -1.46783,0.34461 -1.46784,0.3446 -0.7255,-0.0521 -0.72551,-0.0521 -0.31,-0.63461 -0.31,-0.63461 -0.15021,-1.8723 -0.1502,-1.8723 -0.24488,-0.84345 -0.24488,-0.84345 -0.69897,-1.07851 -0.69898,-1.07851 -0.30532,-0.66851 -0.30532,-0.66851 -0.004,-1.04991 -0.004,-1.04991 0.25885,-0.62136 0.25885,-0.62136 0.61857,-0.63725 0.61856,-0.63725 0.50138,-0.3089 0.50139,-0.30891 1.75483,-0.60809 1.75483,-0.60809 0.9192,-0.51688 0.9192,-0.51688 1.00276,-0.75803 1.00277,-0.75803 1.08632,-0.93093 1.08633,-0.93094 2.44661,-2.37322 2.44661,-2.37323 1.14662,-0.73917 1.14662,-0.73918 2.17265,-1.21417 2.17266,-1.21416 0.86789,-0.554 0.8679,-0.55401 0.69013,-0.62349 0.69013,-0.62349 0.34436,-0.67499 0.34435,-0.675 0.0822,-1.02448 0.0822,-1.02449 -0.4387,-1.70294 -0.43869,-1.70294 v -0.37532 -0.37531 l 1.59439,-1.99955 1.5944,-1.99955 0.5882,-0.87893 0.58819,-0.87894 0.4253,-0.92896 0.42529,-0.92897 0.083,-0.61864 0.083,-0.61865 -0.18836,-0.69949 -0.18835,-0.69949 -0.42087,-0.50017 -0.42087,-0.50018 -0.66386,-0.29289 -0.66385,-0.29289 0.0548,-0.16451 0.0548,-0.16451 0.9925,-0.55029 0.99251,-0.5503 2.00552,-0.65196 2.00553,-0.65196 1.80313,-0.46515 1.80313,-0.46514 0.15754,0.15753 0.15753,0.15754 -1.50909,2.58519 -1.5091,2.58519 -0.67658,1.38248 -0.67658,1.38248 -0.23261,0.87373 -0.23261,0.87374 -0.001,1.16989 -0.001,1.16989 0.32563,0.53405 0.32564,0.53406 0.65139,0.19516 0.65138,0.19516 0.73541,-0.33204 0.7354,-0.33205 1.75484,-1.63197 1.75483,-1.63197 3.92749,-3.73991 3.92748,-3.73991 1.42058,-1.60603 1.42058,-1.60602 0.5378,-0.2297 0.53779,-0.22969 1.30061,0.002 1.3006,0.002 1.0498,0.24751 1.04981,0.2475 0.70503,0.35578 0.70503,0.35577 1.6865,1.63481 1.6865,1.6348 1.33098,0.42046 1.33098,0.42045 1.06746,0.27661 1.06747,0.27661 1.09599,0.49594 1.096,0.49595 0.63729,0.44041 0.63729,0.44041 0.40725,0.69492 0.40726,0.69492 v 0.42238 0.42238 l -0.34322,0.43632 -0.34322,0.43633 -0.67371,0.18141 -0.67371,0.18141 -0.94682,-0.10979 -0.94681,-0.1098 -1.8384,-0.40751 -1.8384,-0.40751 -0.93074,-0.0985 -0.93075,-0.0985 -0.92829,0.26986 -0.9283,0.26986 -0.64786,0.64817 -0.64787,0.64816 -1.03469,1.73756 -1.03469,1.73755 -0.92576,1.91928 -0.92576,1.91928 -0.18145,0.87344 -0.18144,0.87345 0.21994,0.44854 0.21993,0.44854 0.47232,0.34929 0.47231,0.34928 0.80631,-0.0246 0.80631,-0.0246 0.86578,-0.43485 0.86578,-0.43486 0.69675,-0.56423 0.69676,-0.56423 0.53486,-0.27151 0.53487,-0.2715 h 0.63962 0.63962 l 0.35821,0.2509 0.3582,0.2509 0.10628,0.48386 0.10627,0.48386 -0.23863,0.56047 -0.23863,0.56048 -0.39757,0.35545 -0.39758,0.35545 -0.58494,0.18048 -0.58495,0.18047 -1.50414,0.26797 -1.50414,0.26796 -1.90126,0.49921 -1.90126,0.49921 -0.8281,0.41963 -0.82809,0.41963 -0.86539,0.86774 -0.86538,0.86774 -0.83435,0.9192 -0.83434,0.9192 -1.49973,1.16989 -1.49974,1.16989 -0.80538,1.00276 -0.80539,1.00276 -0.49404,0.98768 -0.49405,0.98767 v 0.76977 0.76976 l 0.30946,0.58234 0.30945,0.58234 0.56797,0.392 0.56796,0.392 0.8875,-0.0885 0.8875,-0.0885 1.11518,-0.52185 1.11519,-0.52186 2.59331,-1.49144 2.59331,-1.49144 0.98714,-0.33752 0.98715,-0.33751 0.76769,0.004 0.76769,0.004 0.66851,0.31355 0.6685,0.31356 1.92196,1.44063 1.92197,1.44063 0.98767,0.49836 0.98768,0.49836 h 0.6103 0.6103 l 0.376,-0.35031 0.37601,-0.3503 0.16111,-0.42374 0.1611,-0.42375 0.14585,-1.81441 0.14585,-1.81441 0.42307,-0.72192 0.42307,-0.72191 0.76222,-0.70259 0.76222,-0.70259 0.54803,-0.26133 0.54802,-0.26134 2.29857,1.00663 2.29857,1.00663 0.50697,0.36099 0.50696,0.36099 -0.0511,0.43993 -0.0511,0.43993 -1.0217,0.27484 -1.02169,0.27484 -1.23452,0.12227 -1.23452,0.12228 -0.45677,0.23406 -0.45677,0.23407 -0.25352,0.49025 -0.25352,0.49025 v 0.90279 0.90278 l 0.37603,0.54769 0.37604,0.54768 0.58494,0.31729 0.58495,0.31729 1.41475,0.52512 1.41476,0.52512 0.38186,0.38186 0.38186,0.38186 v 0.54041 0.54042 l -0.36096,0.5268 -0.36097,0.52679 -0.53148,0.36418 -0.53148,0.36418 -0.92663,0.19436 -0.92663,0.19436 -0.9803,-0.35236 -0.98031,-0.35237 -0.6685,-0.25569 -0.66851,-0.25569 -1.20732,-0.007 -1.20732,-0.007 -1.26216,0.50139 -1.26215,0.50138 -0.70594,-0.002 -0.70594,-0.002 -0.85817,-0.39958 -0.85817,-0.39958 -1.39805,-1.28798 -1.39804,-1.28799 -0.80346,-0.40757 -0.80347,-0.40758 -1.30666,-0.19045 -1.30666,-0.19044 -2.13744,0.29724 -2.13745,0.29724 -2.57616,0.6477 -2.57617,0.6477 -1.26692,0.60936 -1.26692,0.60937 -1.15954,1.18748 -1.15955,1.18748 -1.02863,1.37057 -1.02863,1.37057 -0.79099,1.3085 -0.79098,1.30849 -0.57532,1.42058 -0.57532,1.42058 -0.26267,1.28819 -0.26267,1.28819 v 0.81235 0.81235 l 0.26723,0.89984 0.26722,0.89985 0.54987,0.84354 0.54986,0.84354 1.23022,1.36537 1.23021,1.36536 0.66851,0.53144 0.66851,0.53143 0.59216,0.30339 0.59216,0.3034 0.99555,0.27365 0.99554,0.27364 4.51244,0.1436 4.51243,0.14359 1.08632,0.34412 1.08633,0.34412 0.61172,0.50613 0.61172,0.50613 0.38469,0.79405 0.3847,0.79406 0.0969,1.6025 0.0969,1.6025 1.11872,2.24142 1.11871,2.24142 0.19085,0.91225 0.19084,0.91226 -0.0932,1.11143 -0.0932,1.11144 -0.72156,1.9038 -0.72157,1.9038 0.009,1.25345 0.009,1.25345 1.6307,4.17818 1.6307,4.17818 0.40082,0.68736 0.40082,0.68737 0.58676,0.51519 0.58677,0.51518 0.63129,0.17532 0.6313,0.17531 0.67518,9.3e-4 0.67517,9.3e-4 0.98069,-0.25543 0.98068,-0.25544 1.1732,-0.6165 1.1732,-0.61649 0.96411,-0.8926 0.96411,-0.8926 1.41618,-2.12117 1.41617,-2.12118 1.16276,-2.08908 1.16276,-2.08909 0.53509,-1.16989 0.53509,-1.16989 0.83671,-2.08909 0.8367,-2.08909 0.61246,-1.16989 0.61245,-1.16989 2.54833,-3.80478 2.54834,-3.80478 0.74118,-1.47578 0.74118,-1.47579 0.26194,-1.01082 0.26193,-1.01083 v -0.73254 -0.73254 l -0.25926,-0.37015 -0.25927,-0.37015 -0.31508,-0.16863 -0.31509,-0.16862 -1.304,-0.18137 -1.30401,-0.18137 -0.5349,-0.2235 -0.53489,-0.22349 -0.77799,-0.71713 -0.77799,-0.71712 -1.0461,-1.59362 -1.04609,-1.59362 -2.45735,-4.4637 -2.45735,-4.4637 0.17655,-0.32988 0.17655,-0.32989 0.32608,-0.10349 0.32608,-0.10349 0.49296,0.25492 0.49296,0.25491 0.5621,0.6567 0.56211,0.65669 1.16772,2.21904 1.16772,2.21903 1.8384,1.93651 1.8384,1.9365 0.70403,1.08544 0.70404,1.08543 0.46585,0.27112 0.46586,0.27112 0.52917,0.11307 0.52918,0.11307 0.69197,-0.18633 0.69196,-0.18633 0.64728,-0.58477 0.64727,-0.58478 0.51241,-0.79852 0.51241,-0.79852 0.33744,-0.98079 0.33744,-0.98078 0.10148,-0.86345 0.10149,-0.86345 -0.20819,-0.64918 -0.20818,-0.64918 -0.40314,-0.53989 -0.40314,-0.53989 -1.64123,-1.16366 -1.64123,-1.16365 -0.73432,-0.8234 -0.73433,-0.8234 -0.53505,-0.89916 -0.53505,-0.89916 -0.10129,-0.27093 -0.10128,-0.27092 0.27223,-0.27224 0.27224,-0.27224 h 0.30505 0.30505 l 1.26842,1.15211 1.26841,1.15211 0.87973,0.57357 0.87972,0.57356 0.50138,0.18413 0.50138,0.18412 1.79511,0.34786 1.79511,0.34785 0.90817,0.40164 0.90816,0.40163 0.97532,0.66233 0.97532,0.66233 1.09098,1.15649 1.09098,1.1565 0.28434,0.59919 0.28433,0.59918 0.26286,1.06462 0.26287,1.06462 0.43061,1.33702 0.43061,1.33701 0.37647,0.75208 0.37647,0.75207 0.35448,0.32032 0.35447,0.32033 h 0.52987 0.52987 l 0.26183,-0.39321 0.26183,-0.39321 0.67321,-2.01621 0.67322,-2.0162 1.16518,-2.54783 1.16518,-2.54783 0.19422,-8.6e-4 0.19422,-8.5e-4 0.11714,0.69332 0.11713,0.69333 -9.8e-4,3.94445 -9.8e-4,3.94445 -0.27628,2.33978 -0.27629,2.33978 -0.48511,2.42334 -0.48512,2.42334 -0.59441,2.06376 -0.5944,2.06375 -0.94053,2.44868 -0.94052,2.44867 -1.22034,2.44128 -1.22034,2.44127 -0.94911,1.56978 -0.9491,1.56977 -1.08986,1.58771 -1.08986,1.58771 -1.25909,1.5877 -1.2591,1.58771 -2.7712,2.7685 -2.77119,2.76851 -2.10077,1.6751 -2.10077,1.67511 -2.16097,1.4366 -2.16097,1.43661 -2.17014,1.18018 -2.17014,1.18019 -1.75735,0.77407 -1.75735,0.77407 -1.92196,0.73595 -1.92196,0.73594 -2.18322,0.64693 -2.18323,0.64694 -2.16208,0.43455 -2.16208,0.43455 -1.8384,0.26297 -1.83839,0.26297 z m 28.09759,-22.98403 h 0.58131 l 0.47394,-0.24509 0.47395,-0.24508 0.71222,-0.79946 0.71222,-0.79946 0.63149,-1.33701 0.6315,-1.33702 0.60509,-1.99889 0.60509,-1.99888 -0.0495,-0.42303 -0.0495,-0.42303 -0.31014,-0.0589 -0.31015,-0.0589 -0.5837,0.55882 -0.5837,0.55882 -1.46572,1.93986 -1.46571,1.93986 -0.57446,0.98486 -0.57446,0.98486 -0.28317,0.71368 -0.28318,0.71367 v 0.4025 0.40249 l 0.26263,0.26263 0.26262,0.26263 z m -34.59372,-65.05562 1.07984,-0.0867 0.77086,-0.39669 0.77085,-0.3967 0.34958,-0.66648 0.34959,-0.66648 v -1.1982 -1.19821 l -0.40517,-0.43128 -0.40517,-0.43128 h -0.69786 -0.69786 l -0.69177,0.50111 -0.69176,0.50111 -0.58149,0.79412 -0.5815,0.79413 -0.25596,0.74006 -0.25596,0.74006 v 0.31208 0.31208 l 0.43196,0.43196 0.43197,0.43197 z m -26.22811,78.59291 h -0.21803 l -1.3279,-0.91018 -1.32789,-0.91019 -1.58771,-1.26723 -1.58771,-1.26723 -1.89766,-1.77842 -1.89766,-1.77843 -1.57662,-1.74605 -1.57663,-1.74605 -1.66292,-2.21489 -1.66293,-2.21488 -1.36249,-2.2362 -1.36249,-2.23619 -1.08444,-2.25353 -1.08444,-2.25353 -0.87904,-2.2589 -0.87905,-2.2589 -0.51325,-1.67127 -0.51325,-1.67127 -0.42428,-1.75483 -0.42428,-1.75484 -0.33601,-1.84746 -0.33601,-1.84745 -0.24733,-2.33072 -0.24732,-2.33072 -3.4e-4,-3.25898 -3.4e-4,-3.25898 0.10539,-0.87741 0.10539,-0.87742 h 0.16309 0.16309 l 0.52759,0.57599 0.52759,0.57599 1.32608,2.22339 1.32607,2.22339 0.55708,1.28396 0.55708,1.28397 0.25301,1.21346 0.25301,1.21346 -0.0507,3.8534 -0.0507,3.8534 0.27565,0.8511 0.27565,0.85109 0.37395,0.73662 0.37395,0.73661 0.49083,0.71653 0.49084,0.71654 2.84492,2.95636 2.84492,2.95637 0.94708,1.25735 0.94707,1.25734 0.54136,1.08633 0.54137,1.08633 1.18137,3.04987 1.18136,3.04988 1.41014,2.76948 1.41013,2.76949 0.945,1.61779 0.945,1.6178 0.96884,1.4259 0.96885,1.42591 0.25739,0.61603 0.2574,0.61603 v 0.1725 0.17249 z M 128.08405,125.4793 h -0.72154 l -0.37145,-0.26017 -0.37144,-0.26017 v -0.2111 -0.2111 l 1.47893,-1.6596 1.47892,-1.6596 2.15609,-2.08988 2.15609,-2.08987 1.75484,-1.46717 1.75483,-1.46716 1.39594,-0.95539 1.39593,-0.9554 h 0.72268 0.72268 l 0.47185,0.35133 0.47186,0.35133 0.14935,0.41905 0.14936,0.41906 -0.11855,0.48307 -0.11854,0.48307 -1.2007,1.17349 -1.2007,1.1735 -2.42334,1.82926 -2.42334,1.82926 -2.65905,2.06311 -2.65905,2.06312 -0.63506,0.32398 -0.63505,0.32398 z"
         id="path2" /></g></g></svg>
